<svg width="1336" height="700" xmlns="http://www.w3.org/2000/svg"><defs><linearGradient id="a" gradientTransform="rotate(90)"><stop offset="5%" stop-color="#bfb1d9"/><stop offset="95%" stop-color="#cfc4e2"/></linearGradient><linearGradient id="b" gradientTransform="rotate(90)"><stop offset="5%" stop-color="#ad9bcb"/><stop offset="95%" stop-color="#c1b4d8"/></linearGradient><linearGradient id="c" gradientTransform="rotate(90)"><stop offset="5%" stop-color="#9b86be"/><stop offset="95%" stop-color="#b4a4ce"/></linearGradient><linearGradient id="d" gradientTransform="rotate(90)"><stop offset="5%" stop-color="#8c75b4"/><stop offset="95%" stop-color="#a897c6"/></linearGradient><linearGradient id="e" gradientTransform="rotate(90)"><stop offset="5%" stop-color="#8971b2"/><stop offset="95%" stop-color="#a694c5"/></linearGradient><linearGradient id="f" gradientTransform="rotate(90)"><stop offset="5%" stop-color="#856db0"/><stop offset="95%" stop-color="#a391c3"/></linearGradient><linearGradient id="g" gradientTransform="rotate(90)"><stop offset="5%" stop-color="#8269ae"/><stop offset="95%" stop-color="#a18ec2"/></linearGradient><linearGradient id="h" gradientTransform="rotate(90)"><stop offset="5%" stop-color="#775ea4"/><stop offset="95%" stop-color="#9986ba"/></linearGradient><linearGradient id="i" gradientTransform="rotate(90)"><stop offset="5%" stop-color="#654d91"/><stop offset="95%" stop-color="#8b79ac"/></linearGradient><linearGradient id="j" gradientTransform="rotate(90)"><stop offset="5%" stop-color="#533b7f"/><stop offset="95%" stop-color="#7e6c9f"/></linearGradient><linearGradient id="k" gradientTransform="rotate(90)"><stop offset="5%" stop-color="#41296d"/><stop offset="95%" stop-color="#705e91"/></linearGradient><linearGradient id="l" gradientTransform="rotate(90)"><stop offset="5%" stop-color="#36205d"/><stop offset="95%" stop-color="#685785"/></linearGradient><linearGradient id="m" gradientTransform="rotate(90)"><stop offset="5%" stop-color="#2c194e"/><stop offset="95%" stop-color="#60527a"/></linearGradient><linearGradient id="n" gradientTransform="rotate(90)"><stop offset="5%" stop-color="#23123f"/><stop offset="95%" stop-color="#5a4d6f"/></linearGradient><linearGradient id="o" gradientTransform="rotate(90)"><stop offset="5%" stop-color="#190b30"/><stop offset="95%" stop-color="#524863"/></linearGradient></defs><path fill="#d1c6e6" d="M0 0h1336v700H0z"/><path d="M0 43c41.916 2.188 83.832 4.376 131 4 47.168-.376 99.587-3.315 143-4s77.82.885 118 2c40.18 1.115 86.13 1.773 136-1 49.87-2.773 103.656-8.98 148-8 44.344.98 79.245 9.144 124 11 44.755 1.856 99.362-2.597 143-4 43.638-1.403 76.305.242 119 1 42.695.758 95.418.627 147 1 51.582.373 102.023 1.25 123 1 20.977-.25 12.488-1.625 44-3l-40 657H0Z" fill="url(#a)"/><path d="M0 87c40.14 4.115 80.28 8.23 124 6 43.72-2.23 91.023-10.806 139-11 47.977-.194 96.629 7.995 141 10 44.371 2.005 84.461-2.175 129-6s93.527-7.296 140-6c46.473 1.296 90.433 7.36 134 7 43.567-.36 86.743-7.14 133-6 46.257 1.14 95.595 10.203 135 10 39.405-.203 68.878-9.67 118-10 49.122-.33 117.892 8.477 145 11 27.108 2.523 12.554-1.239 38-5l-40 613H0Z" fill="url(#b)"/><path d="M0 131c38.265 1.163 76.53 2.326 125 3 48.47.674 107.148.857 153 1 45.852.143 78.878.244 119 1s87.34 2.166 133 1 89.761-4.91 138-4c48.239.91 100.615 6.472 144 4 43.385-2.472 77.78-12.977 121-13 43.22-.023 95.265 10.437 138 13 42.735 2.563 76.16-2.772 123-5s107.097-1.351 133-1c25.903.351 17.451.175 49 0l-40 569H0Z" fill="url(#c)"/><path d="M0 175c43.13.02 86.258.04 133 2 46.742 1.96 97.096 5.859 141 5 43.904-.859 81.358-6.476 125-7 43.642-.524 93.47 4.044 139 5 45.53.956 86.76-1.701 132-4 45.24-2.299 94.488-4.24 139-4 44.512.24 84.29 2.658 127 4 42.71 1.342 88.355 1.607 130 2 41.645.393 79.289.913 131 1 51.711.087 117.489-.261 143-1 25.511-.739 10.756-1.87 36-3l-40 525H0Z" fill="url(#d)"/><path d="M0 218c41.715 1.732 83.43 3.465 130 4 46.57.535 97.994-.127 141-2s77.594-4.958 120-4c42.406.958 92.631 5.96 142 5s97.881-7.882 139-7c41.119.882 74.843 9.569 118 9 43.157-.569 95.746-10.393 144-11 48.254-.607 92.171 8.002 134 11 41.829 2.998 81.57.384 132-3 50.43-3.384 111.552-7.538 136-8 24.448-.462 12.224 2.77 40 6l-40 482H0Z" fill="url(#e)"/><path d="M0 262c44.12-4.007 88.242-8.014 133-6 44.758 2.014 90.154 10.048 135 12 44.846 1.952 89.14-2.177 136-3s96.283 1.661 141 3 84.727 1.533 128 0c43.273-1.533 89.81-4.794 135-5 45.19-.206 89.031 2.644 133 3 43.969.356 88.064-1.78 130-4 41.936-2.22 81.714-4.52 132-6 50.286-1.48 111.082-2.137 135-1 23.918 1.137 10.96 4.068 38 7l-40 438H0Z" fill="url(#f)"/><path d="M0 306c43.034-.082 86.068-.164 129 1s85.763 3.574 131 5c45.237 1.426 92.88 1.87 141 0 48.12-1.87 96.715-6.051 140-9s81.258-4.665 126-4c44.742.665 96.253 3.713 144 5s91.73.815 135 1c43.27.185 85.825 1.03 124 0s71.97-3.93 121-4c49.03-.07 113.294 2.695 140 4 26.706 1.305 15.853 1.153 45 1l-40 394H0Z" fill="url(#g)"/><path d="M0 350c43.618.85 87.235 1.7 135 3s99.677 3.049 140 0c40.323-3.049 69.058-10.896 115-10 45.942.896 109.09 10.535 156 14s77.583.756 117-2c39.417-2.756 87.58-5.558 137-7 49.42-1.442 100.099-1.525 145-1 44.901.525 84.025 1.656 121 3 36.975 1.344 71.8 2.9 125 3 53.2.1 124.771-1.257 152-2 27.229-.743 10.114-.871 33-1l-40 350H0Z" fill="url(#h)"/><path d="M0 393c38.283-.733 76.567-1.466 124-2 47.433-.534 104.016-.868 153 1 48.984 1.868 90.37 5.94 129 6 38.63.06 74.502-3.892 121-5 46.498-1.108 103.622.628 149 1s79.012-.619 122-2 95.331-3.152 140-1 81.664 8.226 126 7c44.336-1.226 96.014-9.753 146-11 49.986-1.247 98.282 4.787 119 7 20.718 2.213 13.86.607 47-1l-40 307H0Z" fill="url(#i)"/><path d="M0 437c41.397 1.84 82.793 3.681 129 2 46.207-1.681 97.224-6.884 142-6 44.776.884 83.312 7.856 127 10s92.529-.539 136-4c43.471-3.461 81.572-7.7 127-8 45.428-.3 98.182 3.34 147 5 48.818 1.66 93.7 1.343 136-1s82.019-6.71 121-5c38.981 1.71 77.226 9.499 129 12 51.774 2.501 117.078-.285 143-2 25.922-1.715 12.46-2.357 39-3l-40 263H0Z" fill="url(#j)"/><path d="M0 481c44.078-2.602 88.157-5.203 134-6 45.843-.797 93.452.21 137 2s83.036 4.36 129 4c45.964-.36 98.404-3.653 145-2 46.596 1.653 87.348 8.25 131 9s90.203-4.346 131-8 75.84-5.866 118-5c42.16.866 91.434 4.81 136 7 44.566 2.19 84.421 2.628 135 3 50.579.372 111.88.678 137 0 25.12-.678 14.06-2.339 43-4l-40 219H0Z" fill="url(#k)"/><path d="M0 525c40.09-3.463 80.181-6.925 125-5 44.819 1.925 94.367 9.238 140 10 45.633.762 87.353-5.026 134-8 46.647-2.974 98.222-3.132 144-1 45.778 2.132 85.759 6.554 128 5 42.241-1.554 86.743-9.085 131-9 44.257.085 88.268 7.785 131 12s84.186 4.944 127 2c42.814-2.944 86.988-9.562 137-10 50.012-.438 105.86 5.303 130 7s16.57-.652 49-3l-40 175H0Z" fill="url(#l)"/><path d="M0 568c46.297-3.145 92.594-6.29 138-6 45.406.29 89.921 4.017 133 4 43.079-.017 84.721-3.776 129-2 44.279 1.776 91.195 9.086 137 12 45.805 2.914 90.5 1.43 132-1 41.5-2.43 79.806-5.807 122-6 42.194-.193 88.276 2.796 135 4 46.724 1.204 94.091.622 136-2 41.909-2.622 78.36-7.283 130-8 51.64-.717 118.469 2.51 145 4 26.531 1.49 12.766 1.245 39 1l-40 132H0Z" fill="url(#m)"/><path d="M0 612c42.185-2.773 84.37-5.545 129-3 44.63 2.545 91.708 10.408 135 10 43.292-.408 82.798-9.087 127-13 44.202-3.913 93.099-3.06 139-1 45.901 2.06 88.807 5.325 130 6 41.193.675 80.672-1.241 131-3s111.505-3.36 155-1c43.495 2.36 69.308 8.684 111 9 41.692.316 99.263-5.377 154-7 54.737-1.623 106.64.822 127 2s9.18 1.09 38 1l-40 88H0Z" fill="url(#n)"/><path d="M0 656c49.095.156 98.19.311 144 0s88.337-1.089 129-1c40.663.089 79.461 1.045 122-1s88.818-7.09 137-6c48.182 1.09 98.268 8.313 141 10 42.732 1.687 78.11-2.162 121-3 42.89-.838 93.294 1.336 142 2 48.706.664 95.715-.183 136-2s73.846-4.605 124-3c50.154 1.605 116.901 7.601 143 9 26.099 1.399 11.55-1.8 37-5l-40 44H0Z" fill="url(#o)"/></svg>